<svg width="50" height="34" viewBox="0 0 50 34" fill="none" xmlns="http://www.w3.org/2000/svg">
<path d="M49.0234 16.0488C48.9512 15.8906 47.2402 12.0918 43.4609 8.3125C38.4043 3.26367 32.0313 0.59375 25 0.59375C17.9688 0.59375 11.5957 3.26367 6.54493 8.3125C2.76563 12.0918 1.05469 15.8906 0.976566 16.0488C0.844248 16.3488 0.775909 16.6731 0.775909 17.001C0.775909 17.3289 0.844248 17.6531 0.976566 17.9531C1.04883 18.1133 2.75977 21.9102 6.54102 25.6895C11.5957 30.7383 17.9688 33.4062 25 33.4062C32.0313 33.4062 38.4043 30.7383 43.4531 25.6895C47.2344 21.9102 48.9453 18.1133 49.0176 17.9531C49.1508 17.6535 49.2202 17.3295 49.2212 17.0016C49.2222 16.6737 49.1548 16.3492 49.0234 16.0488ZM40.0274 22.4941C35.834 26.623 30.7793 28.7188 25 28.7188C19.2207 28.7188 14.166 26.623 9.97852 22.4922C8.33076 20.8618 6.91336 19.014 5.76563 17C6.9137 14.9868 8.33106 13.1397 9.97852 11.5098C14.168 7.37695 19.2207 5.28125 25 5.28125C30.7793 5.28125 35.832 7.37695 40.0215 11.5098C41.6691 13.1396 43.0865 14.9867 44.2344 17C43.0865 19.0139 41.6691 20.8616 40.0215 22.4922L40.0274 22.4941ZM25 8.40625C23.3003 8.40625 21.6388 8.91026 20.2256 9.85456C18.8123 10.7989 17.7109 12.141 17.0604 13.7113C16.41 15.2816 16.2398 17.0095 16.5714 18.6766C16.903 20.3436 17.7214 21.8748 18.9233 23.0767C20.1252 24.2786 21.6564 25.097 23.3234 25.4286C24.9905 25.7602 26.7184 25.59 28.2887 24.9396C29.859 24.2891 31.2012 23.1877 32.1454 21.7744C33.0897 20.3612 33.5938 18.6997 33.5938 17C33.5912 14.7216 32.6849 12.5372 31.0738 10.9262C29.4628 9.31507 27.2784 8.40883 25 8.40625ZM25 20.9062C24.2274 20.9062 23.4722 20.6772 22.8298 20.2479C22.1874 19.8187 21.6868 19.2086 21.3911 18.4949C21.0954 17.7811 21.0181 16.9957 21.1688 16.2379C21.3195 15.4802 21.6916 14.7842 22.2379 14.2379C22.7842 13.6916 23.4802 13.3195 24.2379 13.1688C24.9957 13.0181 25.7811 13.0954 26.4949 13.3911C27.2086 13.6868 27.8187 14.1874 28.2479 14.8298C28.6772 15.4722 28.9063 16.2274 28.9063 17C28.9063 18.036 28.4947 19.0296 27.7621 19.7621C27.0296 20.4947 26.036 20.9062 25 20.9062Z" fill="currentColor"/>
</svg>
