<svg width="42" height="40" viewBox="0 0 42 40" fill="none" xmlns="http://www.w3.org/2000/svg">
<path d="M38.1 39.5L23.925 25.85C22.8 26.7167 21.5063 27.4028 20.0437 27.9083C18.5812 28.4139 17.025 28.6667 15.375 28.6667C11.2875 28.6667 7.8285 27.3031 4.998 24.576C2.1675 21.8489 0.7515 18.518 0.75 14.5833C0.75 10.6472 2.166 7.31633 4.998 4.59067C7.83 1.865 11.289 0.501444 15.375 0.5C19.4625 0.5 22.9215 1.86356 25.752 4.59067C28.5825 7.31778 29.9985 10.6487 30 14.5833C30 16.1722 29.7375 17.6708 29.2125 19.0792C28.6875 20.4875 27.975 21.7333 27.075 22.8167L41.25 36.4667L38.1 39.5ZM15.375 24.3333C18.1875 24.3333 20.5785 23.3851 22.548 21.4885C24.5175 19.5919 25.5015 17.2902 25.5 14.5833C25.5 11.875 24.5153 9.57256 22.5457 7.676C20.5763 5.77944 18.186 4.83189 15.375 4.83333C12.5625 4.83333 10.1715 5.78161 8.202 7.67817C6.2325 9.57472 5.2485 11.8764 5.25 14.5833C5.25 17.2917 6.23475 19.5941 8.20425 21.4907C10.1737 23.3872 12.564 24.3348 15.375 24.3333Z" fill="white"/>
</svg>
