<svg width="31" height="28" viewBox="0 0 31 28" fill="none" xmlns="http://www.w3.org/2000/svg">
<path fill-rule="evenodd" clip-rule="evenodd" d="M30.0833 14.0833C30.0833 6.62726 23.3678 0.583313 15.0833 0.583313C6.79884 0.583313 0.0833435 6.62726 0.0833435 14.0833C0.0833435 21.5394 6.79884 27.5833 15.0833 27.5833C23.3678 27.5833 30.0833 21.5394 30.0833 14.0833ZM15.0833 6.32081C15.3817 6.32081 15.6679 6.42749 15.8788 6.61737C16.0898 6.80725 16.2083 7.06478 16.2083 7.33331V15.4333C16.2083 15.7018 16.0898 15.9594 15.8788 16.1493C15.6679 16.3391 15.3817 16.4458 15.0833 16.4458C14.785 16.4458 14.4988 16.3391 14.2878 16.1493C14.0769 15.9594 13.9583 15.7018 13.9583 15.4333V7.33331C13.9583 7.06478 14.0769 6.80725 14.2878 6.61737C14.4988 6.42749 14.785 6.32081 15.0833 6.32081ZM15.0833 20.8333C15.4812 20.8333 15.8627 20.6911 16.144 20.4379C16.4253 20.1847 16.5833 19.8414 16.5833 19.4833C16.5833 19.1253 16.4253 18.7819 16.144 18.5287C15.8627 18.2755 15.4812 18.1333 15.0833 18.1333C14.6855 18.1333 14.304 18.2755 14.0227 18.5287C13.7414 18.7819 13.5833 19.1253 13.5833 19.4833C13.5833 19.8414 13.7414 20.1847 14.0227 20.4379C14.304 20.6911 14.6855 20.8333 15.0833 20.8333Z" fill="currentColor"/>
</svg>
